# xmcd CD database file
#
# Track frame offsets:
#	150
#	26812
#	53225
#	87287
#	108637
#	135800
#	158162
#
# Disc length: 2658 seconds
#
# Revision: 1
# Processed by: cddbd v1.5.1PL2 Copyright (c) Steve Scherf et al.
# Submitted via: CDex 1.70beta2
#
DISCID=520a6007
DTITLE=Dadawa - Sister Drum
DYEAR=1995
DGENRE=New Age
TTITLE0=Home without shadow
TTITLE1=Sister Drum
TTITLE2=Sky Burial
TTITLE3=Di Wei Shin Kan, New Wei Shi Kan
TTITLE4=Crossing the ridge
TTITLE5=Zhouma opf Zhoumas
TTITLE6=The tunrning scripture
EXTD=YEAR: 1995
EXTT0=
EXTT1=
EXTT2=
EXTT3=
EXTT4=
EXTT5=
EXTT6=
PLAYORDER=
